<?xml version="1.0" encoding="UTF-8" ?>
<svg version="1.1" width="64" height="64" xmlns="http://www.w3.org/2000/svg" shape-rendering="crispEdges">
<rect x="0" y="0" width="1" height="1" fill="#FFFFFF" />
<rect x="1" y="0" width="1" height="1" fill="#FFFFFF" />
<rect x="2" y="0" width="1" height="1" fill="#FFFFFF" />
<rect x="3" y="0" width="1" height="1" fill="#FFFFFF" />
<rect x="4" y="0" width="1" height="1" fill="#FFFFFF" />
<rect x="5" y="0" width="1" height="1" fill="#FFFFFF" />
<rect x="6" y="0" width="1" height="1" fill="#FFFFFF" />
<rect x="7" y="0" width="1" height="1" fill="#FFFFFF" />
<rect x="8" y="0" width="1" height="1" fill="#FFFFFF" />
<rect x="9" y="0" width="1" height="1" fill="#FFFFFF" />
<rect x="10" y="0" width="1" height="1" fill="#FFFFFF" />
<rect x="11" y="0" width="1" height="1" fill="#FFFFFF" />
<rect x="12" y="0" width="1" height="1" fill="#FFFFFF" />
<rect x="13" y="0" width="1" height="1" fill="#FFFFFF" />
<rect x="14" y="0" width="1" height="1" fill="#FFFFFF" />
<rect x="15" y="0" width="1" height="1" fill="#FFFFFF" />
<rect x="16" y="0" width="1" height="1" fill="#FFFFFF" />
<rect x="17" y="0" width="1" height="1" fill="#FFFFFF" />
<rect x="18" y="0" width="1" height="1" fill="#FFFFFF" />
<rect x="19" y="0" width="1" height="1" fill="#FFFFFF" />
<rect x="20" y="0" width="1" height="1" fill="#FFFFFF" />
<rect x="21" y="0" width="1" height="1" fill="#FFFFFF" />
<rect x="22" y="0" width="1" height="1" fill="#FFFFFF" />
<rect x="23" y="0" width="1" height="1" fill="#FFFFFF" />
<rect x="24" y="0" width="1" height="1" fill="#FFFFFF" />
<rect x="25" y="0" width="1" height="1" fill="#FFFFFF" />
<rect x="26" y="0" width="1" height="1" fill="#FFFFFF" />
<rect x="27" y="0" width="1" height="1" fill="#FFFFFF" />
<rect x="28" y="0" width="1" height="1" fill="#FFFFFF" />
<rect x="29" y="0" width="1" height="1" fill="#FFFFFF" />
<rect x="30" y="0" width="1" height="1" fill="#FFFFFF" />
<rect x="31" y="0" width="1" height="1" fill="#FFFFFF" />
<rect x="32" y="0" width="1" height="1" fill="#FFFFFF" />
<rect x="33" y="0" width="1" height="1" fill="#FFFFFF" />
<rect x="34" y="0" width="1" height="1" fill="#FFFFFF" />
<rect x="35" y="0" width="1" height="1" fill="#FFFFFF" />
<rect x="36" y="0" width="1" height="1" fill="#FFFFFF" />
<rect x="37" y="0" width="1" height="1" fill="#FFFFFF" />
<rect x="38" y="0" width="1" height="1" fill="#FFFFFF" />
<rect x="39" y="0" width="1" height="1" fill="#FFFFFF" />
<rect x="40" y="0" width="1" height="1" fill="#FFFFFF" />
<rect x="41" y="0" width="1" height="1" fill="#FFFFFF" />
<rect x="42" y="0" width="1" height="1" fill="#FFFFFF" />
<rect x="43" y="0" width="1" height="1" fill="#FFFFFF" />
<rect x="44" y="0" width="1" height="1" fill="#FFFFFF" />
<rect x="45" y="0" width="1" height="1" fill="#FFFFFF" />
<rect x="46" y="0" width="1" height="1" fill="#FFFFFF" />
<rect x="47" y="0" width="1" height="1" fill="#FFFFFF" />
<rect x="48" y="0" width="1" height="1" fill="#FFFFFF" />
<rect x="49" y="0" width="1" height="1" fill="#FFFFFF" />
<rect x="50" y="0" width="1" height="1" fill="#FFFFFF" />
<rect x="51" y="0" width="1" height="1" fill="#FFFFFF" />
<rect x="52" y="0" width="1" height="1" fill="#FFFFFF" />
<rect x="53" y="0" width="1" height="1" fill="#FFFFFF" />
<rect x="54" y="0" width="1" height="1" fill="#FFFFFF" />
<rect x="55" y="0" width="1" height="1" fill="#FFFFFF" />
<rect x="56" y="0" width="1" height="1" fill="#FFFFFF" />
<rect x="57" y="0" width="1" height="1" fill="#FFFFFF" />
<rect x="58" y="0" width="1" height="1" fill="#FFFFFF" />
<rect x="59" y="0" width="1" height="1" fill="#FFFFFF" />
<rect x="60" y="0" width="1" height="1" fill="#FFFFFF" />
<rect x="61" y="0" width="1" height="1" fill="#FFFFFF" />
<rect x="62" y="0" width="1" height="1" fill="#FFFFFF" />
<rect x="63" y="0" width="1" height="1" fill="#FFFFFF" />
<rect x="0" y="1" width="1" height="1" fill="#FFFFFF" />
<rect x="1" y="1" width="1" height="1" fill="#FFFFFF" />
<rect x="2" y="1" width="1" height="1" fill="#FFFFFF" />
<rect x="3" y="1" width="1" height="1" fill="#FFFFFF" />
<rect x="4" y="1" width="1" height="1" fill="#FFFFFF" />
<rect x="5" y="1" width="1" height="1" fill="#FFFFFF" />
<rect x="6" y="1" width="1" height="1" fill="#FFFFFF" />
<rect x="7" y="1" width="1" height="1" fill="#FFFFFF" />
<rect x="8" y="1" width="1" height="1" fill="#FFFFFF" />
<rect x="9" y="1" width="1" height="1" fill="#FFFFFF" />
<rect x="10" y="1" width="1" height="1" fill="#FFFFFF" />
<rect x="11" y="1" width="1" height="1" fill="#FFFFFF" />
<rect x="12" y="1" width="1" height="1" fill="#FFFFFF" />
<rect x="13" y="1" width="1" height="1" fill="#FFFFFF" />
<rect x="14" y="1" width="1" height="1" fill="#FFFFFF" />
<rect x="15" y="1" width="1" height="1" fill="#FFFFFF" />
<rect x="16" y="1" width="1" height="1" fill="#FFFFFF" />
<rect x="17" y="1" width="1" height="1" fill="#FFFFFF" />
<rect x="18" y="1" width="1" height="1" fill="#FFFFFF" />
<rect x="19" y="1" width="1" height="1" fill="#FFFFFF" />
<rect x="20" y="1" width="1" height="1" fill="#FFFFFF" />
<rect x="21" y="1" width="1" height="1" fill="#FFFFFF" />
<rect x="22" y="1" width="1" height="1" fill="#FFFFFF" />
<rect x="23" y="1" width="1" height="1" fill="#FFFFFF" />
<rect x="24" y="1" width="1" height="1" fill="#FFFFFF" />
<rect x="25" y="1" width="1" height="1" fill="#FFFFFF" />
<rect x="26" y="1" width="1" height="1" fill="#FFFFFF" />
<rect x="27" y="1" width="1" height="1" fill="#FFFFFF" />
<rect x="28" y="1" width="1" height="1" fill="#FFFFFF" />
<rect x="29" y="1" width="1" height="1" fill="#FFFFFF" />
<rect x="30" y="1" width="1" height="1" fill="#FFFFFF" />
<rect x="31" y="1" width="1" height="1" fill="#FFFFFF" />
<rect x="32" y="1" width="1" height="1" fill="#FFFFFF" />
<rect x="33" y="1" width="1" height="1" fill="#FFFFFF" />
<rect x="34" y="1" width="1" height="1" fill="#FFFFFF" />
<rect x="35" y="1" width="1" height="1" fill="#FFFFFF" />
<rect x="36" y="1" width="1" height="1" fill="#FFFFFF" />
<rect x="37" y="1" width="1" height="1" fill="#FFFFFF" />
<rect x="38" y="1" width="1" height="1" fill="#FFFFFF" />
<rect x="39" y="1" width="1" height="1" fill="#FFFFFF" />
<rect x="40" y="1" width="1" height="1" fill="#FFFFFF" />
<rect x="41" y="1" width="1" height="1" fill="#FFFFFF" />
<rect x="42" y="1" width="1" height="1" fill="#FFFFFF" />
<rect x="43" y="1" width="1" height="1" fill="#FFFFFF" />
<rect x="44" y="1" width="1" height="1" fill="#FFFFFF" />
<rect x="45" y="1" width="1" height="1" fill="#FFFFFF" />
<rect x="46" y="1" width="1" height="1" fill="#FFFFFF" />
<rect x="47" y="1" width="1" height="1" fill="#FFFFFF" />
<rect x="48" y="1" width="1" height="1" fill="#FFFFFF" />
<rect x="49" y="1" width="1" height="1" fill="#FFFFFF" />
<rect x="50" y="1" width="1" height="1" fill="#FFFFFF" />
<rect x="51" y="1" width="1" height="1" fill="#FFFFFF" />
<rect x="52" y="1" width="1" height="1" fill="#FFFFFF" />
<rect x="53" y="1" width="1" height="1" fill="#FFFFFF" />
<rect x="54" y="1" width="1" height="1" fill="#FFFFFF" />
<rect x="55" y="1" width="1" height="1" fill="#FFFFFF" />
<rect x="56" y="1" width="1" height="1" fill="#FFFFFF" />
<rect x="57" y="1" width="1" height="1" fill="#FFFFFF" />
<rect x="58" y="1" width="1" height="1" fill="#FFFFFF" />
<rect x="59" y="1" width="1" height="1" fill="#FFFFFF" />
<rect x="60" y="1" width="1" height="1" fill="#FFFFFF" />
<rect x="61" y="1" width="1" height="1" fill="#FFFFFF" />
<rect x="62" y="1" width="1" height="1" fill="#FFFFFF" />
<rect x="63" y="1" width="1" height="1" fill="#FFFFFF" />
<rect x="0" y="2" width="1" height="1" fill="#FFFFFF" />
<rect x="1" y="2" width="1" height="1" fill="#FFFFFF" />
<rect x="2" y="2" width="1" height="1" fill="#FFFFFF" />
<rect x="3" y="2" width="1" height="1" fill="#FFFFFF" />
<rect x="60" y="2" width="1" height="1" fill="#FFFFFF" />
<rect x="61" y="2" width="1" height="1" fill="#FFFFFF" />
<rect x="62" y="2" width="1" height="1" fill="#FFFFFF" />
<rect x="63" y="2" width="1" height="1" fill="#FFFFFF" />
<rect x="0" y="3" width="1" height="1" fill="#FFFFFF" />
<rect x="1" y="3" width="1" height="1" fill="#FFFFFF" />
<rect x="2" y="3" width="1" height="1" fill="#FFFFFF" />
<rect x="3" y="3" width="1" height="1" fill="#FFFFFF" />
<rect x="4" y="3" width="1" height="1" fill="#FFFFFF" />
<rect x="59" y="3" width="1" height="1" fill="#FFFFFF" />
<rect x="60" y="3" width="1" height="1" fill="#FFFFFF" />
<rect x="61" y="3" width="1" height="1" fill="#FFFFFF" />
<rect x="62" y="3" width="1" height="1" fill="#FFFFFF" />
<rect x="63" y="3" width="1" height="1" fill="#FFFFFF" />
<rect x="0" y="4" width="1" height="1" fill="#FFFFFF" />
<rect x="1" y="4" width="1" height="1" fill="#FFFFFF" />
<rect x="3" y="4" width="1" height="1" fill="#FFFFFF" />
<rect x="4" y="4" width="1" height="1" fill="#FFFFFF" />
<rect x="5" y="4" width="1" height="1" fill="#FFFFFF" />
<rect x="58" y="4" width="1" height="1" fill="#FFFFFF" />
<rect x="59" y="4" width="1" height="1" fill="#FFFFFF" />
<rect x="60" y="4" width="1" height="1" fill="#FFFFFF" />
<rect x="62" y="4" width="1" height="1" fill="#FFFFFF" />
<rect x="63" y="4" width="1" height="1" fill="#FFFFFF" />
<rect x="0" y="5" width="1" height="1" fill="#FFFFFF" />
<rect x="1" y="5" width="1" height="1" fill="#FFFFFF" />
<rect x="4" y="5" width="1" height="1" fill="#FFFFFF" />
<rect x="5" y="5" width="1" height="1" fill="#FFFFFF" />
<rect x="6" y="5" width="1" height="1" fill="#FFFFFF" />
<rect x="57" y="5" width="1" height="1" fill="#FFFFFF" />
<rect x="58" y="5" width="1" height="1" fill="#FFFFFF" />
<rect x="59" y="5" width="1" height="1" fill="#FFFFFF" />
<rect x="62" y="5" width="1" height="1" fill="#FFFFFF" />
<rect x="63" y="5" width="1" height="1" fill="#FFFFFF" />
<rect x="0" y="6" width="1" height="1" fill="#FFFFFF" />
<rect x="1" y="6" width="1" height="1" fill="#FFFFFF" />
<rect x="5" y="6" width="1" height="1" fill="#FFFFFF" />
<rect x="6" y="6" width="1" height="1" fill="#FFFFFF" />
<rect x="7" y="6" width="1" height="1" fill="#FFFFFF" />
<rect x="56" y="6" width="1" height="1" fill="#FFFFFF" />
<rect x="57" y="6" width="1" height="1" fill="#FFFFFF" />
<rect x="58" y="6" width="1" height="1" fill="#FFFFFF" />
<rect x="62" y="6" width="1" height="1" fill="#FFFFFF" />
<rect x="63" y="6" width="1" height="1" fill="#FFFFFF" />
<rect x="0" y="7" width="1" height="1" fill="#FFFFFF" />
<rect x="1" y="7" width="1" height="1" fill="#FFFFFF" />
<rect x="6" y="7" width="1" height="1" fill="#FFFFFF" />
<rect x="7" y="7" width="1" height="1" fill="#FFFFFF" />
<rect x="8" y="7" width="1" height="1" fill="#FFFFFF" />
<rect x="55" y="7" width="1" height="1" fill="#FFFFFF" />
<rect x="56" y="7" width="1" height="1" fill="#FFFFFF" />
<rect x="57" y="7" width="1" height="1" fill="#FFFFFF" />
<rect x="62" y="7" width="1" height="1" fill="#FFFFFF" />
<rect x="63" y="7" width="1" height="1" fill="#FFFFFF" />
<rect x="0" y="8" width="1" height="1" fill="#FFFFFF" />
<rect x="1" y="8" width="1" height="1" fill="#FFFFFF" />
<rect x="7" y="8" width="1" height="1" fill="#FFFFFF" />
<rect x="8" y="8" width="1" height="1" fill="#FFFFFF" />
<rect x="9" y="8" width="1" height="1" fill="#FFFFFF" />
<rect x="54" y="8" width="1" height="1" fill="#FFFFFF" />
<rect x="55" y="8" width="1" height="1" fill="#FFFFFF" />
<rect x="56" y="8" width="1" height="1" fill="#FFFFFF" />
<rect x="62" y="8" width="1" height="1" fill="#FFFFFF" />
<rect x="63" y="8" width="1" height="1" fill="#FFFFFF" />
<rect x="0" y="9" width="1" height="1" fill="#FFFFFF" />
<rect x="1" y="9" width="1" height="1" fill="#FFFFFF" />
<rect x="8" y="9" width="1" height="1" fill="#FFFFFF" />
<rect x="9" y="9" width="1" height="1" fill="#FFFFFF" />
<rect x="10" y="9" width="1" height="1" fill="#FFFFFF" />
<rect x="53" y="9" width="1" height="1" fill="#FFFFFF" />
<rect x="54" y="9" width="1" height="1" fill="#FFFFFF" />
<rect x="55" y="9" width="1" height="1" fill="#FFFFFF" />
<rect x="62" y="9" width="1" height="1" fill="#FFFFFF" />
<rect x="63" y="9" width="1" height="1" fill="#FFFFFF" />
<rect x="0" y="10" width="1" height="1" fill="#FFFFFF" />
<rect x="1" y="10" width="1" height="1" fill="#FFFFFF" />
<rect x="9" y="10" width="1" height="1" fill="#FFFFFF" />
<rect x="10" y="10" width="1" height="1" fill="#FFFFFF" />
<rect x="11" y="10" width="1" height="1" fill="#FFFFFF" />
<rect x="52" y="10" width="1" height="1" fill="#FFFFFF" />
<rect x="53" y="10" width="1" height="1" fill="#FFFFFF" />
<rect x="54" y="10" width="1" height="1" fill="#FFFFFF" />
<rect x="62" y="10" width="1" height="1" fill="#FFFFFF" />
<rect x="63" y="10" width="1" height="1" fill="#FFFFFF" />
<rect x="0" y="11" width="1" height="1" fill="#FFFFFF" />
<rect x="1" y="11" width="1" height="1" fill="#FFFFFF" />
<rect x="10" y="11" width="1" height="1" fill="#FFFFFF" />
<rect x="11" y="11" width="1" height="1" fill="#FFFFFF" />
<rect x="12" y="11" width="1" height="1" fill="#FFFFFF" />
<rect x="51" y="11" width="1" height="1" fill="#FFFFFF" />
<rect x="52" y="11" width="1" height="1" fill="#FFFFFF" />
<rect x="53" y="11" width="1" height="1" fill="#FFFFFF" />
<rect x="62" y="11" width="1" height="1" fill="#FFFFFF" />
<rect x="63" y="11" width="1" height="1" fill="#FFFFFF" />
<rect x="0" y="12" width="1" height="1" fill="#FFFFFF" />
<rect x="1" y="12" width="1" height="1" fill="#FFFFFF" />
<rect x="11" y="12" width="1" height="1" fill="#FFFFFF" />
<rect x="12" y="12" width="1" height="1" fill="#FFFFFF" />
<rect x="13" y="12" width="1" height="1" fill="#FFFFFF" />
<rect x="50" y="12" width="1" height="1" fill="#FFFFFF" />
<rect x="51" y="12" width="1" height="1" fill="#FFFFFF" />
<rect x="52" y="12" width="1" height="1" fill="#FFFFFF" />
<rect x="62" y="12" width="1" height="1" fill="#FFFFFF" />
<rect x="63" y="12" width="1" height="1" fill="#FFFFFF" />
<rect x="0" y="13" width="1" height="1" fill="#FFFFFF" />
<rect x="1" y="13" width="1" height="1" fill="#FFFFFF" />
<rect x="12" y="13" width="1" height="1" fill="#FFFFFF" />
<rect x="13" y="13" width="1" height="1" fill="#FFFFFF" />
<rect x="14" y="13" width="1" height="1" fill="#FFFFFF" />
<rect x="49" y="13" width="1" height="1" fill="#FFFFFF" />
<rect x="50" y="13" width="1" height="1" fill="#FFFFFF" />
<rect x="51" y="13" width="1" height="1" fill="#FFFFFF" />
<rect x="62" y="13" width="1" height="1" fill="#FFFFFF" />
<rect x="63" y="13" width="1" height="1" fill="#FFFFFF" />
<rect x="0" y="14" width="1" height="1" fill="#FFFFFF" />
<rect x="1" y="14" width="1" height="1" fill="#FFFFFF" />
<rect x="13" y="14" width="1" height="1" fill="#FFFFFF" />
<rect x="14" y="14" width="1" height="1" fill="#FFFFFF" />
<rect x="15" y="14" width="1" height="1" fill="#FFFFFF" />
<rect x="48" y="14" width="1" height="1" fill="#FFFFFF" />
<rect x="49" y="14" width="1" height="1" fill="#FFFFFF" />
<rect x="50" y="14" width="1" height="1" fill="#FFFFFF" />
<rect x="62" y="14" width="1" height="1" fill="#FFFFFF" />
<rect x="63" y="14" width="1" height="1" fill="#FFFFFF" />
<rect x="0" y="15" width="1" height="1" fill="#FFFFFF" />
<rect x="1" y="15" width="1" height="1" fill="#FFFFFF" />
<rect x="14" y="15" width="1" height="1" fill="#FFFFFF" />
<rect x="15" y="15" width="1" height="1" fill="#FFFFFF" />
<rect x="16" y="15" width="1" height="1" fill="#FFFFFF" />
<rect x="47" y="15" width="1" height="1" fill="#FFFFFF" />
<rect x="48" y="15" width="1" height="1" fill="#FFFFFF" />
<rect x="49" y="15" width="1" height="1" fill="#FFFFFF" />
<rect x="62" y="15" width="1" height="1" fill="#FFFFFF" />
<rect x="63" y="15" width="1" height="1" fill="#FFFFFF" />
<rect x="0" y="16" width="1" height="1" fill="#FFFFFF" />
<rect x="1" y="16" width="1" height="1" fill="#FFFFFF" />
<rect x="15" y="16" width="1" height="1" fill="#FFFFFF" />
<rect x="16" y="16" width="1" height="1" fill="#FFFFFF" />
<rect x="17" y="16" width="1" height="1" fill="#FFFFFF" />
<rect x="46" y="16" width="1" height="1" fill="#FFFFFF" />
<rect x="47" y="16" width="1" height="1" fill="#FFFFFF" />
<rect x="48" y="16" width="1" height="1" fill="#FFFFFF" />
<rect x="62" y="16" width="1" height="1" fill="#FFFFFF" />
<rect x="63" y="16" width="1" height="1" fill="#FFFFFF" />
<rect x="0" y="17" width="1" height="1" fill="#FFFFFF" />
<rect x="1" y="17" width="1" height="1" fill="#FFFFFF" />
<rect x="16" y="17" width="1" height="1" fill="#FFFFFF" />
<rect x="17" y="17" width="1" height="1" fill="#FFFFFF" />
<rect x="18" y="17" width="1" height="1" fill="#FFFFFF" />
<rect x="45" y="17" width="1" height="1" fill="#FFFFFF" />
<rect x="46" y="17" width="1" height="1" fill="#FFFFFF" />
<rect x="47" y="17" width="1" height="1" fill="#FFFFFF" />
<rect x="62" y="17" width="1" height="1" fill="#FFFFFF" />
<rect x="63" y="17" width="1" height="1" fill="#FFFFFF" />
<rect x="0" y="18" width="1" height="1" fill="#FFFFFF" />
<rect x="1" y="18" width="1" height="1" fill="#FFFFFF" />
<rect x="17" y="18" width="1" height="1" fill="#FFFFFF" />
<rect x="18" y="18" width="1" height="1" fill="#FFFFFF" />
<rect x="19" y="18" width="1" height="1" fill="#FFFFFF" />
<rect x="44" y="18" width="1" height="1" fill="#FFFFFF" />
<rect x="45" y="18" width="1" height="1" fill="#FFFFFF" />
<rect x="46" y="18" width="1" height="1" fill="#FFFFFF" />
<rect x="62" y="18" width="1" height="1" fill="#FFFFFF" />
<rect x="63" y="18" width="1" height="1" fill="#FFFFFF" />
<rect x="0" y="19" width="1" height="1" fill="#FFFFFF" />
<rect x="1" y="19" width="1" height="1" fill="#FFFFFF" />
<rect x="18" y="19" width="1" height="1" fill="#FFFFFF" />
<rect x="19" y="19" width="1" height="1" fill="#FFFFFF" />
<rect x="20" y="19" width="1" height="1" fill="#FFFFFF" />
<rect x="43" y="19" width="1" height="1" fill="#FFFFFF" />
<rect x="44" y="19" width="1" height="1" fill="#FFFFFF" />
<rect x="45" y="19" width="1" height="1" fill="#FFFFFF" />
<rect x="62" y="19" width="1" height="1" fill="#FFFFFF" />
<rect x="63" y="19" width="1" height="1" fill="#FFFFFF" />
<rect x="0" y="20" width="1" height="1" fill="#FFFFFF" />
<rect x="1" y="20" width="1" height="1" fill="#FFFFFF" />
<rect x="19" y="20" width="1" height="1" fill="#FFFFFF" />
<rect x="20" y="20" width="1" height="1" fill="#FFFFFF" />
<rect x="21" y="20" width="1" height="1" fill="#FFFFFF" />
<rect x="42" y="20" width="1" height="1" fill="#FFFFFF" />
<rect x="43" y="20" width="1" height="1" fill="#FFFFFF" />
<rect x="44" y="20" width="1" height="1" fill="#FFFFFF" />
<rect x="62" y="20" width="1" height="1" fill="#FFFFFF" />
<rect x="63" y="20" width="1" height="1" fill="#FFFFFF" />
<rect x="0" y="21" width="1" height="1" fill="#FFFFFF" />
<rect x="1" y="21" width="1" height="1" fill="#FFFFFF" />
<rect x="20" y="21" width="1" height="1" fill="#FFFFFF" />
<rect x="21" y="21" width="1" height="1" fill="#FFFFFF" />
<rect x="22" y="21" width="1" height="1" fill="#FFFFFF" />
<rect x="41" y="21" width="1" height="1" fill="#FFFFFF" />
<rect x="42" y="21" width="1" height="1" fill="#FFFFFF" />
<rect x="43" y="21" width="1" height="1" fill="#FFFFFF" />
<rect x="62" y="21" width="1" height="1" fill="#FFFFFF" />
<rect x="63" y="21" width="1" height="1" fill="#FFFFFF" />
<rect x="0" y="22" width="1" height="1" fill="#FFFFFF" />
<rect x="1" y="22" width="1" height="1" fill="#FFFFFF" />
<rect x="21" y="22" width="1" height="1" fill="#FFFFFF" />
<rect x="22" y="22" width="1" height="1" fill="#FFFFFF" />
<rect x="23" y="22" width="1" height="1" fill="#FFFFFF" />
<rect x="40" y="22" width="1" height="1" fill="#FFFFFF" />
<rect x="41" y="22" width="1" height="1" fill="#FFFFFF" />
<rect x="42" y="22" width="1" height="1" fill="#FFFFFF" />
<rect x="62" y="22" width="1" height="1" fill="#FFFFFF" />
<rect x="63" y="22" width="1" height="1" fill="#FFFFFF" />
<rect x="0" y="23" width="1" height="1" fill="#FFFFFF" />
<rect x="1" y="23" width="1" height="1" fill="#FFFFFF" />
<rect x="22" y="23" width="1" height="1" fill="#FFFFFF" />
<rect x="23" y="23" width="1" height="1" fill="#FFFFFF" />
<rect x="24" y="23" width="1" height="1" fill="#FFFFFF" />
<rect x="39" y="23" width="1" height="1" fill="#FFFFFF" />
<rect x="40" y="23" width="1" height="1" fill="#FFFFFF" />
<rect x="41" y="23" width="1" height="1" fill="#FFFFFF" />
<rect x="62" y="23" width="1" height="1" fill="#FFFFFF" />
<rect x="63" y="23" width="1" height="1" fill="#FFFFFF" />
<rect x="0" y="24" width="1" height="1" fill="#FFFFFF" />
<rect x="1" y="24" width="1" height="1" fill="#FFFFFF" />
<rect x="23" y="24" width="1" height="1" fill="#FFFFFF" />
<rect x="24" y="24" width="1" height="1" fill="#FFFFFF" />
<rect x="25" y="24" width="1" height="1" fill="#FFFFFF" />
<rect x="38" y="24" width="1" height="1" fill="#FFFFFF" />
<rect x="39" y="24" width="1" height="1" fill="#FFFFFF" />
<rect x="40" y="24" width="1" height="1" fill="#FFFFFF" />
<rect x="62" y="24" width="1" height="1" fill="#FFFFFF" />
<rect x="63" y="24" width="1" height="1" fill="#FFFFFF" />
<rect x="0" y="25" width="1" height="1" fill="#FFFFFF" />
<rect x="1" y="25" width="1" height="1" fill="#FFFFFF" />
<rect x="24" y="25" width="1" height="1" fill="#FFFFFF" />
<rect x="25" y="25" width="1" height="1" fill="#FFFFFF" />
<rect x="26" y="25" width="1" height="1" fill="#FFFFFF" />
<rect x="37" y="25" width="1" height="1" fill="#FFFFFF" />
<rect x="38" y="25" width="1" height="1" fill="#FFFFFF" />
<rect x="39" y="25" width="1" height="1" fill="#FFFFFF" />
<rect x="62" y="25" width="1" height="1" fill="#FFFFFF" />
<rect x="63" y="25" width="1" height="1" fill="#FFFFFF" />
<rect x="0" y="26" width="1" height="1" fill="#FFFFFF" />
<rect x="1" y="26" width="1" height="1" fill="#FFFFFF" />
<rect x="25" y="26" width="1" height="1" fill="#FFFFFF" />
<rect x="26" y="26" width="1" height="1" fill="#FFFFFF" />
<rect x="27" y="26" width="1" height="1" fill="#FFFFFF" />
<rect x="36" y="26" width="1" height="1" fill="#FFFFFF" />
<rect x="37" y="26" width="1" height="1" fill="#FFFFFF" />
<rect x="38" y="26" width="1" height="1" fill="#FFFFFF" />
<rect x="62" y="26" width="1" height="1" fill="#FFFFFF" />
<rect x="63" y="26" width="1" height="1" fill="#FFFFFF" />
<rect x="0" y="27" width="1" height="1" fill="#FFFFFF" />
<rect x="1" y="27" width="1" height="1" fill="#FFFFFF" />
<rect x="26" y="27" width="1" height="1" fill="#FFFFFF" />
<rect x="27" y="27" width="1" height="1" fill="#FFFFFF" />
<rect x="28" y="27" width="1" height="1" fill="#FFFFFF" />
<rect x="35" y="27" width="1" height="1" fill="#FFFFFF" />
<rect x="36" y="27" width="1" height="1" fill="#FFFFFF" />
<rect x="37" y="27" width="1" height="1" fill="#FFFFFF" />
<rect x="62" y="27" width="1" height="1" fill="#FFFFFF" />
<rect x="63" y="27" width="1" height="1" fill="#FFFFFF" />
<rect x="0" y="28" width="1" height="1" fill="#FFFFFF" />
<rect x="1" y="28" width="1" height="1" fill="#FFFFFF" />
<rect x="27" y="28" width="1" height="1" fill="#FFFFFF" />
<rect x="28" y="28" width="1" height="1" fill="#FFFFFF" />
<rect x="29" y="28" width="1" height="1" fill="#FFFFFF" />
<rect x="34" y="28" width="1" height="1" fill="#FFFFFF" />
<rect x="35" y="28" width="1" height="1" fill="#FFFFFF" />
<rect x="36" y="28" width="1" height="1" fill="#FFFFFF" />
<rect x="62" y="28" width="1" height="1" fill="#FFFFFF" />
<rect x="63" y="28" width="1" height="1" fill="#FFFFFF" />
<rect x="0" y="29" width="1" height="1" fill="#FFFFFF" />
<rect x="1" y="29" width="1" height="1" fill="#FFFFFF" />
<rect x="28" y="29" width="1" height="1" fill="#FFFFFF" />
<rect x="29" y="29" width="1" height="1" fill="#FFFFFF" />
<rect x="30" y="29" width="1" height="1" fill="#FFFFFF" />
<rect x="33" y="29" width="1" height="1" fill="#FFFFFF" />
<rect x="34" y="29" width="1" height="1" fill="#FFFFFF" />
<rect x="35" y="29" width="1" height="1" fill="#FFFFFF" />
<rect x="62" y="29" width="1" height="1" fill="#FFFFFF" />
<rect x="63" y="29" width="1" height="1" fill="#FFFFFF" />
<rect x="0" y="30" width="1" height="1" fill="#FFFFFF" />
<rect x="1" y="30" width="1" height="1" fill="#FFFFFF" />
<rect x="29" y="30" width="1" height="1" fill="#FFFFFF" />
<rect x="30" y="30" width="1" height="1" fill="#FFFFFF" />
<rect x="31" y="30" width="1" height="1" fill="#FFFFFF" />
<rect x="32" y="30" width="1" height="1" fill="#FFFFFF" />
<rect x="33" y="30" width="1" height="1" fill="#FFFFFF" />
<rect x="34" y="30" width="1" height="1" fill="#FFFFFF" />
<rect x="62" y="30" width="1" height="1" fill="#FFFFFF" />
<rect x="63" y="30" width="1" height="1" fill="#FFFFFF" />
<rect x="0" y="31" width="1" height="1" fill="#FFFFFF" />
<rect x="1" y="31" width="1" height="1" fill="#FFFFFF" />
<rect x="30" y="31" width="1" height="1" fill="#FFFFFF" />
<rect x="31" y="31" width="1" height="1" fill="#FFFFFF" />
<rect x="32" y="31" width="1" height="1" fill="#FFFFFF" />
<rect x="33" y="31" width="1" height="1" fill="#FFFFFF" />
<rect x="62" y="31" width="1" height="1" fill="#FFFFFF" />
<rect x="63" y="31" width="1" height="1" fill="#FFFFFF" />
<rect x="0" y="32" width="1" height="1" fill="#FFFFFF" />
<rect x="1" y="32" width="1" height="1" fill="#FFFFFF" />
<rect x="30" y="32" width="1" height="1" fill="#FFFFFF" />
<rect x="31" y="32" width="1" height="1" fill="#FFFFFF" />
<rect x="32" y="32" width="1" height="1" fill="#FFFFFF" />
<rect x="33" y="32" width="1" height="1" fill="#FFFFFF" />
<rect x="62" y="32" width="1" height="1" fill="#FFFFFF" />
<rect x="63" y="32" width="1" height="1" fill="#FFFFFF" />
<rect x="0" y="33" width="1" height="1" fill="#FFFFFF" />
<rect x="1" y="33" width="1" height="1" fill="#FFFFFF" />
<rect x="29" y="33" width="1" height="1" fill="#FFFFFF" />
<rect x="30" y="33" width="1" height="1" fill="#FFFFFF" />
<rect x="31" y="33" width="1" height="1" fill="#FFFFFF" />
<rect x="32" y="33" width="1" height="1" fill="#FFFFFF" />
<rect x="33" y="33" width="1" height="1" fill="#FFFFFF" />
<rect x="34" y="33" width="1" height="1" fill="#FFFFFF" />
<rect x="62" y="33" width="1" height="1" fill="#FFFFFF" />
<rect x="63" y="33" width="1" height="1" fill="#FFFFFF" />
<rect x="0" y="34" width="1" height="1" fill="#FFFFFF" />
<rect x="1" y="34" width="1" height="1" fill="#FFFFFF" />
<rect x="28" y="34" width="1" height="1" fill="#FFFFFF" />
<rect x="29" y="34" width="1" height="1" fill="#FFFFFF" />
<rect x="30" y="34" width="1" height="1" fill="#FFFFFF" />
<rect x="33" y="34" width="1" height="1" fill="#FFFFFF" />
<rect x="34" y="34" width="1" height="1" fill="#FFFFFF" />
<rect x="35" y="34" width="1" height="1" fill="#FFFFFF" />
<rect x="62" y="34" width="1" height="1" fill="#FFFFFF" />
<rect x="63" y="34" width="1" height="1" fill="#FFFFFF" />
<rect x="0" y="35" width="1" height="1" fill="#FFFFFF" />
<rect x="1" y="35" width="1" height="1" fill="#FFFFFF" />
<rect x="27" y="35" width="1" height="1" fill="#FFFFFF" />
<rect x="28" y="35" width="1" height="1" fill="#FFFFFF" />
<rect x="29" y="35" width="1" height="1" fill="#FFFFFF" />
<rect x="34" y="35" width="1" height="1" fill="#FFFFFF" />
<rect x="35" y="35" width="1" height="1" fill="#FFFFFF" />
<rect x="36" y="35" width="1" height="1" fill="#FFFFFF" />
<rect x="62" y="35" width="1" height="1" fill="#FFFFFF" />
<rect x="63" y="35" width="1" height="1" fill="#FFFFFF" />
<rect x="0" y="36" width="1" height="1" fill="#FFFFFF" />
<rect x="1" y="36" width="1" height="1" fill="#FFFFFF" />
<rect x="26" y="36" width="1" height="1" fill="#FFFFFF" />
<rect x="27" y="36" width="1" height="1" fill="#FFFFFF" />
<rect x="28" y="36" width="1" height="1" fill="#FFFFFF" />
<rect x="35" y="36" width="1" height="1" fill="#FFFFFF" />
<rect x="36" y="36" width="1" height="1" fill="#FFFFFF" />
<rect x="37" y="36" width="1" height="1" fill="#FFFFFF" />
<rect x="62" y="36" width="1" height="1" fill="#FFFFFF" />
<rect x="63" y="36" width="1" height="1" fill="#FFFFFF" />
<rect x="0" y="37" width="1" height="1" fill="#FFFFFF" />
<rect x="1" y="37" width="1" height="1" fill="#FFFFFF" />
<rect x="25" y="37" width="1" height="1" fill="#FFFFFF" />
<rect x="26" y="37" width="1" height="1" fill="#FFFFFF" />
<rect x="27" y="37" width="1" height="1" fill="#FFFFFF" />
<rect x="36" y="37" width="1" height="1" fill="#FFFFFF" />
<rect x="37" y="37" width="1" height="1" fill="#FFFFFF" />
<rect x="38" y="37" width="1" height="1" fill="#FFFFFF" />
<rect x="62" y="37" width="1" height="1" fill="#FFFFFF" />
<rect x="63" y="37" width="1" height="1" fill="#FFFFFF" />
<rect x="0" y="38" width="1" height="1" fill="#FFFFFF" />
<rect x="1" y="38" width="1" height="1" fill="#FFFFFF" />
<rect x="24" y="38" width="1" height="1" fill="#FFFFFF" />
<rect x="25" y="38" width="1" height="1" fill="#FFFFFF" />
<rect x="26" y="38" width="1" height="1" fill="#FFFFFF" />
<rect x="37" y="38" width="1" height="1" fill="#FFFFFF" />
<rect x="38" y="38" width="1" height="1" fill="#FFFFFF" />
<rect x="39" y="38" width="1" height="1" fill="#FFFFFF" />
<rect x="62" y="38" width="1" height="1" fill="#FFFFFF" />
<rect x="63" y="38" width="1" height="1" fill="#FFFFFF" />
<rect x="0" y="39" width="1" height="1" fill="#FFFFFF" />
<rect x="1" y="39" width="1" height="1" fill="#FFFFFF" />
<rect x="23" y="39" width="1" height="1" fill="#FFFFFF" />
<rect x="24" y="39" width="1" height="1" fill="#FFFFFF" />
<rect x="25" y="39" width="1" height="1" fill="#FFFFFF" />
<rect x="38" y="39" width="1" height="1" fill="#FFFFFF" />
<rect x="39" y="39" width="1" height="1" fill="#FFFFFF" />
<rect x="40" y="39" width="1" height="1" fill="#FFFFFF" />
<rect x="62" y="39" width="1" height="1" fill="#FFFFFF" />
<rect x="63" y="39" width="1" height="1" fill="#FFFFFF" />
<rect x="0" y="40" width="1" height="1" fill="#FFFFFF" />
<rect x="1" y="40" width="1" height="1" fill="#FFFFFF" />
<rect x="22" y="40" width="1" height="1" fill="#FFFFFF" />
<rect x="23" y="40" width="1" height="1" fill="#FFFFFF" />
<rect x="24" y="40" width="1" height="1" fill="#FFFFFF" />
<rect x="39" y="40" width="1" height="1" fill="#FFFFFF" />
<rect x="40" y="40" width="1" height="1" fill="#FFFFFF" />
<rect x="41" y="40" width="1" height="1" fill="#FFFFFF" />
<rect x="62" y="40" width="1" height="1" fill="#FFFFFF" />
<rect x="63" y="40" width="1" height="1" fill="#FFFFFF" />
<rect x="0" y="41" width="1" height="1" fill="#FFFFFF" />
<rect x="1" y="41" width="1" height="1" fill="#FFFFFF" />
<rect x="21" y="41" width="1" height="1" fill="#FFFFFF" />
<rect x="22" y="41" width="1" height="1" fill="#FFFFFF" />
<rect x="23" y="41" width="1" height="1" fill="#FFFFFF" />
<rect x="40" y="41" width="1" height="1" fill="#FFFFFF" />
<rect x="41" y="41" width="1" height="1" fill="#FFFFFF" />
<rect x="42" y="41" width="1" height="1" fill="#FFFFFF" />
<rect x="62" y="41" width="1" height="1" fill="#FFFFFF" />
<rect x="63" y="41" width="1" height="1" fill="#FFFFFF" />
<rect x="0" y="42" width="1" height="1" fill="#FFFFFF" />
<rect x="1" y="42" width="1" height="1" fill="#FFFFFF" />
<rect x="20" y="42" width="1" height="1" fill="#FFFFFF" />
<rect x="21" y="42" width="1" height="1" fill="#FFFFFF" />
<rect x="22" y="42" width="1" height="1" fill="#FFFFFF" />
<rect x="41" y="42" width="1" height="1" fill="#FFFFFF" />
<rect x="42" y="42" width="1" height="1" fill="#FFFFFF" />
<rect x="43" y="42" width="1" height="1" fill="#FFFFFF" />
<rect x="62" y="42" width="1" height="1" fill="#FFFFFF" />
<rect x="63" y="42" width="1" height="1" fill="#FFFFFF" />
<rect x="0" y="43" width="1" height="1" fill="#FFFFFF" />
<rect x="1" y="43" width="1" height="1" fill="#FFFFFF" />
<rect x="19" y="43" width="1" height="1" fill="#FFFFFF" />
<rect x="20" y="43" width="1" height="1" fill="#FFFFFF" />
<rect x="21" y="43" width="1" height="1" fill="#FFFFFF" />
<rect x="42" y="43" width="1" height="1" fill="#FFFFFF" />
<rect x="43" y="43" width="1" height="1" fill="#FFFFFF" />
<rect x="44" y="43" width="1" height="1" fill="#FFFFFF" />
<rect x="62" y="43" width="1" height="1" fill="#FFFFFF" />
<rect x="63" y="43" width="1" height="1" fill="#FFFFFF" />
<rect x="0" y="44" width="1" height="1" fill="#FFFFFF" />
<rect x="1" y="44" width="1" height="1" fill="#FFFFFF" />
<rect x="18" y="44" width="1" height="1" fill="#FFFFFF" />
<rect x="19" y="44" width="1" height="1" fill="#FFFFFF" />
<rect x="20" y="44" width="1" height="1" fill="#FFFFFF" />
<rect x="43" y="44" width="1" height="1" fill="#FFFFFF" />
<rect x="44" y="44" width="1" height="1" fill="#FFFFFF" />
<rect x="45" y="44" width="1" height="1" fill="#FFFFFF" />
<rect x="62" y="44" width="1" height="1" fill="#FFFFFF" />
<rect x="63" y="44" width="1" height="1" fill="#FFFFFF" />
<rect x="0" y="45" width="1" height="1" fill="#FFFFFF" />
<rect x="1" y="45" width="1" height="1" fill="#FFFFFF" />
<rect x="17" y="45" width="1" height="1" fill="#FFFFFF" />
<rect x="18" y="45" width="1" height="1" fill="#FFFFFF" />
<rect x="19" y="45" width="1" height="1" fill="#FFFFFF" />
<rect x="44" y="45" width="1" height="1" fill="#FFFFFF" />
<rect x="45" y="45" width="1" height="1" fill="#FFFFFF" />
<rect x="46" y="45" width="1" height="1" fill="#FFFFFF" />
<rect x="62" y="45" width="1" height="1" fill="#FFFFFF" />
<rect x="63" y="45" width="1" height="1" fill="#FFFFFF" />
<rect x="0" y="46" width="1" height="1" fill="#FFFFFF" />
<rect x="1" y="46" width="1" height="1" fill="#FFFFFF" />
<rect x="16" y="46" width="1" height="1" fill="#FFFFFF" />
<rect x="17" y="46" width="1" height="1" fill="#FFFFFF" />
<rect x="18" y="46" width="1" height="1" fill="#FFFFFF" />
<rect x="45" y="46" width="1" height="1" fill="#FFFFFF" />
<rect x="46" y="46" width="1" height="1" fill="#FFFFFF" />
<rect x="47" y="46" width="1" height="1" fill="#FFFFFF" />
<rect x="62" y="46" width="1" height="1" fill="#FFFFFF" />
<rect x="63" y="46" width="1" height="1" fill="#FFFFFF" />
<rect x="0" y="47" width="1" height="1" fill="#FFFFFF" />
<rect x="1" y="47" width="1" height="1" fill="#FFFFFF" />
<rect x="15" y="47" width="1" height="1" fill="#FFFFFF" />
<rect x="16" y="47" width="1" height="1" fill="#FFFFFF" />
<rect x="17" y="47" width="1" height="1" fill="#FFFFFF" />
<rect x="46" y="47" width="1" height="1" fill="#FFFFFF" />
<rect x="47" y="47" width="1" height="1" fill="#FFFFFF" />
<rect x="48" y="47" width="1" height="1" fill="#FFFFFF" />
<rect x="62" y="47" width="1" height="1" fill="#FFFFFF" />
<rect x="63" y="47" width="1" height="1" fill="#FFFFFF" />
<rect x="0" y="48" width="1" height="1" fill="#FFFFFF" />
<rect x="1" y="48" width="1" height="1" fill="#FFFFFF" />
<rect x="14" y="48" width="1" height="1" fill="#FFFFFF" />
<rect x="15" y="48" width="1" height="1" fill="#FFFFFF" />
<rect x="16" y="48" width="1" height="1" fill="#FFFFFF" />
<rect x="47" y="48" width="1" height="1" fill="#FFFFFF" />
<rect x="48" y="48" width="1" height="1" fill="#FFFFFF" />
<rect x="49" y="48" width="1" height="1" fill="#FFFFFF" />
<rect x="62" y="48" width="1" height="1" fill="#FFFFFF" />
<rect x="63" y="48" width="1" height="1" fill="#FFFFFF" />
<rect x="0" y="49" width="1" height="1" fill="#FFFFFF" />
<rect x="1" y="49" width="1" height="1" fill="#FFFFFF" />
<rect x="13" y="49" width="1" height="1" fill="#FFFFFF" />
<rect x="14" y="49" width="1" height="1" fill="#FFFFFF" />
<rect x="15" y="49" width="1" height="1" fill="#FFFFFF" />
<rect x="48" y="49" width="1" height="1" fill="#FFFFFF" />
<rect x="49" y="49" width="1" height="1" fill="#FFFFFF" />
<rect x="50" y="49" width="1" height="1" fill="#FFFFFF" />
<rect x="62" y="49" width="1" height="1" fill="#FFFFFF" />
<rect x="63" y="49" width="1" height="1" fill="#FFFFFF" />
<rect x="0" y="50" width="1" height="1" fill="#FFFFFF" />
<rect x="1" y="50" width="1" height="1" fill="#FFFFFF" />
<rect x="12" y="50" width="1" height="1" fill="#FFFFFF" />
<rect x="13" y="50" width="1" height="1" fill="#FFFFFF" />
<rect x="14" y="50" width="1" height="1" fill="#FFFFFF" />
<rect x="49" y="50" width="1" height="1" fill="#FFFFFF" />
<rect x="50" y="50" width="1" height="1" fill="#FFFFFF" />
<rect x="51" y="50" width="1" height="1" fill="#FFFFFF" />
<rect x="62" y="50" width="1" height="1" fill="#FFFFFF" />
<rect x="63" y="50" width="1" height="1" fill="#FFFFFF" />
<rect x="0" y="51" width="1" height="1" fill="#FFFFFF" />
<rect x="1" y="51" width="1" height="1" fill="#FFFFFF" />
<rect x="11" y="51" width="1" height="1" fill="#FFFFFF" />
<rect x="12" y="51" width="1" height="1" fill="#FFFFFF" />
<rect x="13" y="51" width="1" height="1" fill="#FFFFFF" />
<rect x="50" y="51" width="1" height="1" fill="#FFFFFF" />
<rect x="51" y="51" width="1" height="1" fill="#FFFFFF" />
<rect x="52" y="51" width="1" height="1" fill="#FFFFFF" />
<rect x="62" y="51" width="1" height="1" fill="#FFFFFF" />
<rect x="63" y="51" width="1" height="1" fill="#FFFFFF" />
<rect x="0" y="52" width="1" height="1" fill="#FFFFFF" />
<rect x="1" y="52" width="1" height="1" fill="#FFFFFF" />
<rect x="10" y="52" width="1" height="1" fill="#FFFFFF" />
<rect x="11" y="52" width="1" height="1" fill="#FFFFFF" />
<rect x="12" y="52" width="1" height="1" fill="#FFFFFF" />
<rect x="51" y="52" width="1" height="1" fill="#FFFFFF" />
<rect x="52" y="52" width="1" height="1" fill="#FFFFFF" />
<rect x="53" y="52" width="1" height="1" fill="#FFFFFF" />
<rect x="62" y="52" width="1" height="1" fill="#FFFFFF" />
<rect x="63" y="52" width="1" height="1" fill="#FFFFFF" />
<rect x="0" y="53" width="1" height="1" fill="#FFFFFF" />
<rect x="1" y="53" width="1" height="1" fill="#FFFFFF" />
<rect x="9" y="53" width="1" height="1" fill="#FFFFFF" />
<rect x="10" y="53" width="1" height="1" fill="#FFFFFF" />
<rect x="11" y="53" width="1" height="1" fill="#FFFFFF" />
<rect x="52" y="53" width="1" height="1" fill="#FFFFFF" />
<rect x="53" y="53" width="1" height="1" fill="#FFFFFF" />
<rect x="54" y="53" width="1" height="1" fill="#FFFFFF" />
<rect x="62" y="53" width="1" height="1" fill="#FFFFFF" />
<rect x="63" y="53" width="1" height="1" fill="#FFFFFF" />
<rect x="0" y="54" width="1" height="1" fill="#FFFFFF" />
<rect x="1" y="54" width="1" height="1" fill="#FFFFFF" />
<rect x="8" y="54" width="1" height="1" fill="#FFFFFF" />
<rect x="9" y="54" width="1" height="1" fill="#FFFFFF" />
<rect x="10" y="54" width="1" height="1" fill="#FFFFFF" />
<rect x="53" y="54" width="1" height="1" fill="#FFFFFF" />
<rect x="54" y="54" width="1" height="1" fill="#FFFFFF" />
<rect x="55" y="54" width="1" height="1" fill="#FFFFFF" />
<rect x="62" y="54" width="1" height="1" fill="#FFFFFF" />
<rect x="63" y="54" width="1" height="1" fill="#FFFFFF" />
<rect x="0" y="55" width="1" height="1" fill="#FFFFFF" />
<rect x="1" y="55" width="1" height="1" fill="#FFFFFF" />
<rect x="7" y="55" width="1" height="1" fill="#FFFFFF" />
<rect x="8" y="55" width="1" height="1" fill="#FFFFFF" />
<rect x="9" y="55" width="1" height="1" fill="#FFFFFF" />
<rect x="54" y="55" width="1" height="1" fill="#FFFFFF" />
<rect x="55" y="55" width="1" height="1" fill="#FFFFFF" />
<rect x="56" y="55" width="1" height="1" fill="#FFFFFF" />
<rect x="62" y="55" width="1" height="1" fill="#FFFFFF" />
<rect x="63" y="55" width="1" height="1" fill="#FFFFFF" />
<rect x="0" y="56" width="1" height="1" fill="#FFFFFF" />
<rect x="1" y="56" width="1" height="1" fill="#FFFFFF" />
<rect x="6" y="56" width="1" height="1" fill="#FFFFFF" />
<rect x="7" y="56" width="1" height="1" fill="#FFFFFF" />
<rect x="8" y="56" width="1" height="1" fill="#FFFFFF" />
<rect x="55" y="56" width="1" height="1" fill="#FFFFFF" />
<rect x="56" y="56" width="1" height="1" fill="#FFFFFF" />
<rect x="57" y="56" width="1" height="1" fill="#FFFFFF" />
<rect x="62" y="56" width="1" height="1" fill="#FFFFFF" />
<rect x="63" y="56" width="1" height="1" fill="#FFFFFF" />
<rect x="0" y="57" width="1" height="1" fill="#FFFFFF" />
<rect x="1" y="57" width="1" height="1" fill="#FFFFFF" />
<rect x="5" y="57" width="1" height="1" fill="#FFFFFF" />
<rect x="6" y="57" width="1" height="1" fill="#FFFFFF" />
<rect x="7" y="57" width="1" height="1" fill="#FFFFFF" />
<rect x="56" y="57" width="1" height="1" fill="#FFFFFF" />
<rect x="57" y="57" width="1" height="1" fill="#FFFFFF" />
<rect x="58" y="57" width="1" height="1" fill="#FFFFFF" />
<rect x="62" y="57" width="1" height="1" fill="#FFFFFF" />
<rect x="63" y="57" width="1" height="1" fill="#FFFFFF" />
<rect x="0" y="58" width="1" height="1" fill="#FFFFFF" />
<rect x="1" y="58" width="1" height="1" fill="#FFFFFF" />
<rect x="4" y="58" width="1" height="1" fill="#FFFFFF" />
<rect x="5" y="58" width="1" height="1" fill="#FFFFFF" />
<rect x="6" y="58" width="1" height="1" fill="#FFFFFF" />
<rect x="57" y="58" width="1" height="1" fill="#FFFFFF" />
<rect x="58" y="58" width="1" height="1" fill="#FFFFFF" />
<rect x="59" y="58" width="1" height="1" fill="#FFFFFF" />
<rect x="62" y="58" width="1" height="1" fill="#FFFFFF" />
<rect x="63" y="58" width="1" height="1" fill="#FFFFFF" />
<rect x="0" y="59" width="1" height="1" fill="#FFFFFF" />
<rect x="1" y="59" width="1" height="1" fill="#FFFFFF" />
<rect x="3" y="59" width="1" height="1" fill="#FFFFFF" />
<rect x="4" y="59" width="1" height="1" fill="#FFFFFF" />
<rect x="5" y="59" width="1" height="1" fill="#FFFFFF" />
<rect x="58" y="59" width="1" height="1" fill="#FFFFFF" />
<rect x="59" y="59" width="1" height="1" fill="#FFFFFF" />
<rect x="60" y="59" width="1" height="1" fill="#FFFFFF" />
<rect x="62" y="59" width="1" height="1" fill="#FFFFFF" />
<rect x="63" y="59" width="1" height="1" fill="#FFFFFF" />
<rect x="0" y="60" width="1" height="1" fill="#FFFFFF" />
<rect x="1" y="60" width="1" height="1" fill="#FFFFFF" />
<rect x="2" y="60" width="1" height="1" fill="#FFFFFF" />
<rect x="3" y="60" width="1" height="1" fill="#FFFFFF" />
<rect x="4" y="60" width="1" height="1" fill="#FFFFFF" />
<rect x="59" y="60" width="1" height="1" fill="#FFFFFF" />
<rect x="60" y="60" width="1" height="1" fill="#FFFFFF" />
<rect x="61" y="60" width="1" height="1" fill="#FFFFFF" />
<rect x="62" y="60" width="1" height="1" fill="#FFFFFF" />
<rect x="63" y="60" width="1" height="1" fill="#FFFFFF" />
<rect x="0" y="61" width="1" height="1" fill="#FFFFFF" />
<rect x="1" y="61" width="1" height="1" fill="#FFFFFF" />
<rect x="2" y="61" width="1" height="1" fill="#FFFFFF" />
<rect x="3" y="61" width="1" height="1" fill="#FFFFFF" />
<rect x="60" y="61" width="1" height="1" fill="#FFFFFF" />
<rect x="61" y="61" width="1" height="1" fill="#FFFFFF" />
<rect x="62" y="61" width="1" height="1" fill="#FFFFFF" />
<rect x="63" y="61" width="1" height="1" fill="#FFFFFF" />
<rect x="0" y="62" width="1" height="1" fill="#FFFFFF" />
<rect x="1" y="62" width="1" height="1" fill="#FFFFFF" />
<rect x="2" y="62" width="1" height="1" fill="#FFFFFF" />
<rect x="3" y="62" width="1" height="1" fill="#FFFFFF" />
<rect x="4" y="62" width="1" height="1" fill="#FFFFFF" />
<rect x="5" y="62" width="1" height="1" fill="#FFFFFF" />
<rect x="6" y="62" width="1" height="1" fill="#FFFFFF" />
<rect x="7" y="62" width="1" height="1" fill="#FFFFFF" />
<rect x="8" y="62" width="1" height="1" fill="#FFFFFF" />
<rect x="9" y="62" width="1" height="1" fill="#FFFFFF" />
<rect x="10" y="62" width="1" height="1" fill="#FFFFFF" />
<rect x="11" y="62" width="1" height="1" fill="#FFFFFF" />
<rect x="12" y="62" width="1" height="1" fill="#FFFFFF" />
<rect x="13" y="62" width="1" height="1" fill="#FFFFFF" />
<rect x="14" y="62" width="1" height="1" fill="#FFFFFF" />
<rect x="15" y="62" width="1" height="1" fill="#FFFFFF" />
<rect x="16" y="62" width="1" height="1" fill="#FFFFFF" />
<rect x="17" y="62" width="1" height="1" fill="#FFFFFF" />
<rect x="18" y="62" width="1" height="1" fill="#FFFFFF" />
<rect x="19" y="62" width="1" height="1" fill="#FFFFFF" />
<rect x="20" y="62" width="1" height="1" fill="#FFFFFF" />
<rect x="21" y="62" width="1" height="1" fill="#FFFFFF" />
<rect x="22" y="62" width="1" height="1" fill="#FFFFFF" />
<rect x="23" y="62" width="1" height="1" fill="#FFFFFF" />
<rect x="24" y="62" width="1" height="1" fill="#FFFFFF" />
<rect x="25" y="62" width="1" height="1" fill="#FFFFFF" />
<rect x="26" y="62" width="1" height="1" fill="#FFFFFF" />
<rect x="27" y="62" width="1" height="1" fill="#FFFFFF" />
<rect x="28" y="62" width="1" height="1" fill="#FFFFFF" />
<rect x="29" y="62" width="1" height="1" fill="#FFFFFF" />
<rect x="30" y="62" width="1" height="1" fill="#FFFFFF" />
<rect x="31" y="62" width="1" height="1" fill="#FFFFFF" />
<rect x="32" y="62" width="1" height="1" fill="#FFFFFF" />
<rect x="33" y="62" width="1" height="1" fill="#FFFFFF" />
<rect x="34" y="62" width="1" height="1" fill="#FFFFFF" />
<rect x="35" y="62" width="1" height="1" fill="#FFFFFF" />
<rect x="36" y="62" width="1" height="1" fill="#FFFFFF" />
<rect x="37" y="62" width="1" height="1" fill="#FFFFFF" />
<rect x="38" y="62" width="1" height="1" fill="#FFFFFF" />
<rect x="39" y="62" width="1" height="1" fill="#FFFFFF" />
<rect x="40" y="62" width="1" height="1" fill="#FFFFFF" />
<rect x="41" y="62" width="1" height="1" fill="#FFFFFF" />
<rect x="42" y="62" width="1" height="1" fill="#FFFFFF" />
<rect x="43" y="62" width="1" height="1" fill="#FFFFFF" />
<rect x="44" y="62" width="1" height="1" fill="#FFFFFF" />
<rect x="45" y="62" width="1" height="1" fill="#FFFFFF" />
<rect x="46" y="62" width="1" height="1" fill="#FFFFFF" />
<rect x="47" y="62" width="1" height="1" fill="#FFFFFF" />
<rect x="48" y="62" width="1" height="1" fill="#FFFFFF" />
<rect x="49" y="62" width="1" height="1" fill="#FFFFFF" />
<rect x="50" y="62" width="1" height="1" fill="#FFFFFF" />
<rect x="51" y="62" width="1" height="1" fill="#FFFFFF" />
<rect x="52" y="62" width="1" height="1" fill="#FFFFFF" />
<rect x="53" y="62" width="1" height="1" fill="#FFFFFF" />
<rect x="54" y="62" width="1" height="1" fill="#FFFFFF" />
<rect x="55" y="62" width="1" height="1" fill="#FFFFFF" />
<rect x="56" y="62" width="1" height="1" fill="#FFFFFF" />
<rect x="57" y="62" width="1" height="1" fill="#FFFFFF" />
<rect x="58" y="62" width="1" height="1" fill="#FFFFFF" />
<rect x="59" y="62" width="1" height="1" fill="#FFFFFF" />
<rect x="60" y="62" width="1" height="1" fill="#FFFFFF" />
<rect x="61" y="62" width="1" height="1" fill="#FFFFFF" />
<rect x="62" y="62" width="1" height="1" fill="#FFFFFF" />
<rect x="63" y="62" width="1" height="1" fill="#FFFFFF" />
<rect x="0" y="63" width="1" height="1" fill="#FFFFFF" />
<rect x="1" y="63" width="1" height="1" fill="#FFFFFF" />
<rect x="2" y="63" width="1" height="1" fill="#FFFFFF" />
<rect x="3" y="63" width="1" height="1" fill="#FFFFFF" />
<rect x="4" y="63" width="1" height="1" fill="#FFFFFF" />
<rect x="5" y="63" width="1" height="1" fill="#FFFFFF" />
<rect x="6" y="63" width="1" height="1" fill="#FFFFFF" />
<rect x="7" y="63" width="1" height="1" fill="#FFFFFF" />
<rect x="8" y="63" width="1" height="1" fill="#FFFFFF" />
<rect x="9" y="63" width="1" height="1" fill="#FFFFFF" />
<rect x="10" y="63" width="1" height="1" fill="#FFFFFF" />
<rect x="11" y="63" width="1" height="1" fill="#FFFFFF" />
<rect x="12" y="63" width="1" height="1" fill="#FFFFFF" />
<rect x="13" y="63" width="1" height="1" fill="#FFFFFF" />
<rect x="14" y="63" width="1" height="1" fill="#FFFFFF" />
<rect x="15" y="63" width="1" height="1" fill="#FFFFFF" />
<rect x="16" y="63" width="1" height="1" fill="#FFFFFF" />
<rect x="17" y="63" width="1" height="1" fill="#FFFFFF" />
<rect x="18" y="63" width="1" height="1" fill="#FFFFFF" />
<rect x="19" y="63" width="1" height="1" fill="#FFFFFF" />
<rect x="20" y="63" width="1" height="1" fill="#FFFFFF" />
<rect x="21" y="63" width="1" height="1" fill="#FFFFFF" />
<rect x="22" y="63" width="1" height="1" fill="#FFFFFF" />
<rect x="23" y="63" width="1" height="1" fill="#FFFFFF" />
<rect x="24" y="63" width="1" height="1" fill="#FFFFFF" />
<rect x="25" y="63" width="1" height="1" fill="#FFFFFF" />
<rect x="26" y="63" width="1" height="1" fill="#FFFFFF" />
<rect x="27" y="63" width="1" height="1" fill="#FFFFFF" />
<rect x="28" y="63" width="1" height="1" fill="#FFFFFF" />
<rect x="29" y="63" width="1" height="1" fill="#FFFFFF" />
<rect x="30" y="63" width="1" height="1" fill="#FFFFFF" />
<rect x="31" y="63" width="1" height="1" fill="#FFFFFF" />
<rect x="32" y="63" width="1" height="1" fill="#FFFFFF" />
<rect x="33" y="63" width="1" height="1" fill="#FFFFFF" />
<rect x="34" y="63" width="1" height="1" fill="#FFFFFF" />
<rect x="35" y="63" width="1" height="1" fill="#FFFFFF" />
<rect x="36" y="63" width="1" height="1" fill="#FFFFFF" />
<rect x="37" y="63" width="1" height="1" fill="#FFFFFF" />
<rect x="38" y="63" width="1" height="1" fill="#FFFFFF" />
<rect x="39" y="63" width="1" height="1" fill="#FFFFFF" />
<rect x="40" y="63" width="1" height="1" fill="#FFFFFF" />
<rect x="41" y="63" width="1" height="1" fill="#FFFFFF" />
<rect x="42" y="63" width="1" height="1" fill="#FFFFFF" />
<rect x="43" y="63" width="1" height="1" fill="#FFFFFF" />
<rect x="44" y="63" width="1" height="1" fill="#FFFFFF" />
<rect x="45" y="63" width="1" height="1" fill="#FFFFFF" />
<rect x="46" y="63" width="1" height="1" fill="#FFFFFF" />
<rect x="47" y="63" width="1" height="1" fill="#FFFFFF" />
<rect x="48" y="63" width="1" height="1" fill="#FFFFFF" />
<rect x="49" y="63" width="1" height="1" fill="#FFFFFF" />
<rect x="50" y="63" width="1" height="1" fill="#FFFFFF" />
<rect x="51" y="63" width="1" height="1" fill="#FFFFFF" />
<rect x="52" y="63" width="1" height="1" fill="#FFFFFF" />
<rect x="53" y="63" width="1" height="1" fill="#FFFFFF" />
<rect x="54" y="63" width="1" height="1" fill="#FFFFFF" />
<rect x="55" y="63" width="1" height="1" fill="#FFFFFF" />
<rect x="56" y="63" width="1" height="1" fill="#FFFFFF" />
<rect x="57" y="63" width="1" height="1" fill="#FFFFFF" />
<rect x="58" y="63" width="1" height="1" fill="#FFFFFF" />
<rect x="59" y="63" width="1" height="1" fill="#FFFFFF" />
<rect x="60" y="63" width="1" height="1" fill="#FFFFFF" />
<rect x="61" y="63" width="1" height="1" fill="#FFFFFF" />
<rect x="62" y="63" width="1" height="1" fill="#FFFFFF" />
<rect x="63" y="63" width="1" height="1" fill="#FFFFFF" />
</svg>